<svg viewBox="0 0 178.38116343490304 247.2" height="120" width="50" class="icon">
  <g>
    <svg viewBox="0 0 178.38116343490304 247.2" height="247.2" width="178.38116343490304">
      <g>
        <svg viewBox="0 0 178.38116343490304 247.2" height="247.2" width="178.38116343490304">
          <g><svg viewBox="0 0 178.38116343490304 247.2" height="247.2" width="178.38116343490304">
              <g><svg viewBox="0 0 178.38116343490304 247.2" height="247.2" width="178.38116343490304">
                  <g transform="matrix(1,0,0,1,0,0)">
                    <svg width="178.38116343490304"
                      viewBox="-0.9000000357627869 -35.45000076293945 26.049999237060547 36.10000228881836"
                      height="247.2" data-palette-color="#ed3b43">
                      <path
                        d="M9.75-35.45L9.75-35.45 20.4-35.35 25.05-35.45Q25.15-34.35 25.15-33.1 25.15-31.85 24.63-31.38 24.1-30.9 22.73-30.9 21.35-30.9 20.5-30.95L20.5-30.95Q18.6-11.4 16.75-6.3L16.75-6.3Q15.15-1.8 12.4-0.3L12.4-0.3Q10.7 0.65 8.33 0.65 5.95 0.65 3.3-0.73 0.65-2.1-0.9-3.95L-0.9-3.95 0.9-6.5Q1.5-6.05 2.78-5.43 4.05-4.8 4.98-4.8 5.9-4.8 6.7-5.8L6.7-5.8Q8.5-8.15 9.85-18.5L9.85-18.5Q10.8-25.6 10.8-30.45L10.8-30.45 10.8-31.3Q7.35-31.2 5.6-30.65L5.6-30.65Q4.9-32.75 4.8-34.9L4.8-34.9Q5.9-35.45 9.75-35.45Z"
                        opacity="1" transform="matrix(1,0,0,1,0,0)" fill="#ed3b43" class="undefined-text-0"
                        data-fill-palette-color="primary" id="text-0">
                      </path>
                    </svg>
                  </g>
                </svg></g>
            </svg></g>
        </svg>
      </g>
      <g></g>
    </svg>
  </g>
</svg>